<?xml version="1.0" encoding="UTF-8" standalone="no"?>
<!-- Created with Inkscape (http://www.inkscape.org/) -->

<svg
   width="128"
   height="128"
   viewBox="0 0 33.866666 33.866668"
   version="1.1"
   id="svg19762"
   xmlns="http://www.w3.org/2000/svg"
   xmlns:svg="http://www.w3.org/2000/svg">
  <defs
     id="defs19759" />
  <g
     id="layer1">
    <g
       aria-label="ACQUIRERS"
       id="text14687"
       style="font-size:6.62363px;letter-spacing:0px;word-spacing:0px;stroke-width:0.165591">
      <path
         d="M 3.2786958,33.098309 2.828289,28.461768 H 0.45040579 L -1.0502338e-6,33.098309 H 0.99354346 L 1.0928979,32.00541 h 1.092899 l 0.099354,1.092899 z M 1.1790051,31.011865 1.324725,29.455312 h 0.6292448 l 0.1457199,1.556553 z"
         style="-inkscape-font-specification:'RodchenkoC, Normal'"
         id="path19986" />
      <path
         d="M 7.1203937,28.461768 H 4.0072875 v 4.636541 H 7.1203937 V 31.654357 H 6.1268491 v 0.450407 H 5.000832 v -2.649452 h 1.1260171 v 0.450407 h 0.9935446 z"
         style="-inkscape-font-specification:'RodchenkoC, Normal'"
         id="path19988" />
      <path
         d="m 8.9749996,33.098309 v 0.768341 h 1.1260174 v -0.768341 h 0.993544 V 28.461768 H 7.9814551 v 4.636541 z m 0,-3.642997 h 1.1260174 v 2.649452 H 8.9749996 Z"
         style="-inkscape-font-specification:'RodchenkoC, Normal'"
         id="path19990" />
      <path
         d="m 13.015406,28.461768 h -0.993545 v 4.636541 h 3.113106 v -4.636541 h -0.993544 v 3.642996 h -1.126017 z"
         style="-inkscape-font-specification:'RodchenkoC, Normal'"
         id="path19992" />
      <path
         d="m 17.983119,28.461768 h -1.920852 v 0.993544 h 0.463654 v 2.649452 h -0.463654 v 0.993545 h 1.920852 v -0.993545 h -0.463654 v -2.649452 h 0.463654 z"
         style="-inkscape-font-specification:'RodchenkoC, Normal'"
         id="path19994" />
      <path
         d="m 22.023524,28.461768 h -3.113106 v 4.636541 h 0.993544 v -1.556553 h 0.470278 l 0.74847,1.556553 h 1.126017 l -0.847824,-1.556553 h 0.622621 z m -2.119562,0.993544 h 1.126017 v 1.126017 h -1.126017 z"
         style="-inkscape-font-specification:'RodchenkoC, Normal'"
         id="path19996" />
      <path
         d="m 26.090422,28.461768 h -3.046869 v 4.636541 h 3.046869 V 32.104764 H 24.037097 V 31.27681 h 1.046534 v -0.993544 h -1.046534 v -0.827954 h 2.053325 z"
         style="-inkscape-font-specification:'RodchenkoC, Normal'"
         id="path19998" />
      <path
         d="m 29.865889,28.461768 h -3.113106 v 4.636541 h 0.993545 v -1.556553 h 0.470277 l 0.748471,1.556553 h 1.126017 l -0.847825,-1.556553 h 0.622621 z m -2.119561,0.993544 h 1.126017 v 1.126017 h -1.126017 z"
         style="-inkscape-font-specification:'RodchenkoC, Normal'"
         id="path20000" />
      <path
         d="m 33.866551,28.461768 h -2.980633 v 2.795171 h 1.987089 v 0.847825 h -1.987089 v 0.993545 h 2.980633 v -2.834914 h -1.987089 v -0.808083 h 1.987089 z"
         style="-inkscape-font-specification:'RodchenkoC, Normal'"
         id="path20002" />
    </g>
    <g
       id="g19198"
       transform="matrix(0.06614559,0,0,0.06614559,3.1393323e-6,-2.9104395)">
      <g
         id="g19141">
        <path
           d="m 424.001,420.001 h -16 c -4.418,0 -8,3.582 -8,8 0,4.418 3.582,8 8,8 h 16 c 4.418,0 8,-3.582 8,-8 0,-4.418 -3.582,-8 -8,-8 z"
           id="path19133" />
        <path
           d="m 504.001,420.001 h -16 v -24 c 0,-4.418 -3.582,-8 -8,-8 h -16 v -192 h 16 c 4.418,0 8,-3.582 8,-8 v -24 h 16 c 3.81,0 7.091,-2.687 7.843,-6.422 0.751,-3.735 -1.235,-7.482 -4.749,-8.956 l -248,-104 c -1.979,-0.83 -4.209,-0.83 -6.188,0 l -248,104 c -3.514,1.473 -5.5,5.22 -4.749,8.956 0.751,3.735 4.033,6.422 7.843,6.422 h 16 v 24 c 0,4.418 3.582,8 8,8 h 16 v 192 h -16 c -4.418,0 -8,3.582 -8,8 v 24 h -16 c -4.418,0 -8,3.582 -8,8 v 32 c 0,4.418 3.582,8 8,8 h 496 c 4.418,0 8,-3.582 8,-8 v -32 c 0,-4.419 -3.582,-8 -8,-8 z m -56,-32 h -24 v -192 h 24 z m -56,0 v -192 h 16 v 192 z m -72,0 v -192 h 16 v 192 z m -72,0 v -192 h 16 v 192 z m -72,0 v -192 h 16 v 192 z m -72,0 v -192 h 16 v 192 z m 32,-192 h 24 v 192 h -24 z m 72,0 h 24 v 192 h -24 z m 72,0 h 24 v 192 h -24 z m 72,0 h 24 v 192 h -24 z m -312,-32 h 335.997 c 4.418,0 8,-3.582 8,-8 0,-4.418 -3.582,-8 -8,-8 H 47.764 L 256,60.676 464.236,148.001 h -8.238 c -4.418,0 -8,3.582 -8,8 0,4.418 3.582,8 8,8 h 16.001 v 16 h -16 -40 -32 -40 -32 -40 -32 -40 -32 -40 -32 -40 -16 v -16 z m 24,32 h 24 v 192 h -24 z m 432,256 h -480 v -16 h 360 c 4.418,0 8,-3.582 8,-8 0,-4.418 -3.582,-8 -8,-8 h -336 v -16 h 16 40 32 40 32 40 32 40 32 40 32 40 16 v 16 h -16.002 c -4.418,0 -8,3.582 -8,8 0,4.418 3.582,8 8,8 h 40.002 z"
           id="path19135" />
        <path
           d="M 408.003,164.001 H 424 c 4.418,0 8,-3.582 8,-8 0,-4.418 -3.582,-8 -8,-8 h -15.997 c -4.418,0 -8,3.582 -8,8 0,4.418 3.581,8 8,8 z"
           id="path19137" />
        <path
           d="m 280.001,100.001 c -4.418,0 -8,3.582 -8,8 0,8.822 -7.178,16 -16,16 -8.822,0 -16,-7.178 -16,-16 0,-8.822 7.178,-16 16,-16 4.418,0 8,-3.582 8,-8 0,-4.418 -3.582,-8 -8,-8 -17.645,0 -32,14.355 -32,32 0,17.645 14.355,32 32,32 17.645,0 32,-14.355 32,-32 0,-4.419 -3.582,-8 -8,-8 z"
           id="path19139" />
      </g>
      <g
         id="g19143" />
      <g
         id="g19145" />
      <g
         id="g19147" />
      <g
         id="g19149" />
      <g
         id="g19151" />
      <g
         id="g19153" />
      <g
         id="g19155" />
      <g
         id="g19157" />
      <g
         id="g19159" />
      <g
         id="g19161" />
      <g
         id="g19163" />
      <g
         id="g19165" />
      <g
         id="g19167" />
      <g
         id="g19169" />
      <g
         id="g19171" />
    </g>
  </g>
</svg>
